# xmcd CD database file
#
# Track frame offsets:
#	150
#	26285
#	42287
#	60322
#	82340
#	107992
#	123877
#	145290
#	169580
#	184012
#	220155
#	242740
#
# Disc length: 3517 seconds
#
# Revision: 1
# Processed by: cddbd v1.4PL0 Copyright (c) Steve Scherf et al.
# Submitted via: CDex 1.40Release
#
DISCID=a10dbb0c
DTITLE=Etta James - Let's Roll
DYEAR=2003
DGENRE=Blues
TTITLE0=Somebody To Love
TTITLE1=The Blues Is My Business
TTITLE2=Leap Of Faith
TTITLE3=Strongest Weakness
TTITLE4=Wayward Saints Of Memphis
TTITLE5=Lie No Better
TTITLE6=Trust Yourself
TTITLE7=A Change Is Gonna Do Me Good
TTITLE8=Old Weakness
TTITLE9=Stacked Deck
TTITLE10=On The 7th Day
TTITLE11=Please, No More
EXTD=YEAR: 2003 ID3G: 0
EXTT0=
EXTT1=
EXTT2=
EXTT3=
EXTT4=
EXTT5=
EXTT6=
EXTT7=
EXTT8=
EXTT9=
EXTT10=
EXTT11=
PLAYORDER=
